<svg width="676" height="676" viewBox="0 0 676 676" fill="none" xmlns="http://www.w3.org/2000/svg">
<path fill-rule="evenodd" clip-rule="evenodd" d="M318.654 0.574951C334.762 -0.301656 338.816 -0.191924 363.581 1.01343C424.726 4.19121 486.199 26.7641 537.043 64.8972C583.942 99.8526 619.665 142.917 644.101 193.651C663.277 233.428 673.029 273.096 675.221 319.885C679.056 402.836 657.469 475.267 610.241 538.165C585.038 571.586 556.109 599.199 522.469 621.663C467.789 658.262 408.508 675.576 337.83 675.576C284.137 675.576 239.429 666.152 194.502 645.222C137.412 618.705 80.6504 567.094 46.9003 511.099C18.3005 463.542 3.06928 412.917 0.439407 356.046C-3.94364 261.59 24.4373 181.379 86.7871 111.687C107.497 88.6759 138.617 62.7058 164.807 46.9265C211.596 18.765 262.769 3.3144 318.654 0.574951Z" fill="white"/>
<path d="M318.654 0.575136C262.769 3.31459 211.596 18.7651 164.806 46.9267C138.617 62.7059 107.497 88.6759 86.7869 111.687C24.437 181.379 -3.9437 261.59 0.439418 356.046C3.06929 412.917 18.3006 463.542 46.9005 511.099C80.6506 567.094 137.412 618.705 194.502 645.223C239.429 666.152 284.137 675.576 337.83 675.576C408.508 675.576 467.79 658.263 522.469 621.664C556.11 599.2 585.038 571.586 610.241 538.165C657.469 475.267 679.056 402.836 675.221 319.886C673.03 273.096 663.277 233.428 644.101 193.652C619.665 142.917 583.943 99.8528 537.043 64.8975C486.199 26.7643 424.726 4.19121 363.581 1.01345C338.816 -0.19191 334.762 -0.301489 318.654 0.575136ZM237.785 209.65C255.866 214.143 271.645 223.566 285.452 238.031C305.833 259.398 317.12 286.683 321.284 323.94C321.941 329.857 322.489 337.528 322.489 341.253V347.828H133.686L134.344 360.101C136.316 396.371 154.835 420.917 187.38 430.231C198.666 433.518 222.773 433.737 233.731 430.779C254.88 425.081 272.96 408.534 276.028 392.098L276.686 388.372H318.325L317.449 391.878C311.203 420.807 292.903 444.147 265.837 457.844C246.88 467.378 217.185 471.542 191.324 468.364C165.026 465.076 144.644 455.653 127.331 438.778C109.47 421.245 99.498 401.302 93.1424 370.291C89.9647 354.293 89.6359 319.338 92.5946 305.531C99.9363 271.671 118.017 242.962 142.562 226.306C155.931 217.211 174.34 209.869 189.352 207.568C200.31 205.924 227.485 207.02 237.785 209.65ZM425.383 251.947C442.477 276.931 456.832 297.422 457.38 297.422C457.818 297.422 472.611 277.15 490.253 252.385C507.895 227.621 522.798 207.13 523.455 206.911C524.113 206.691 535.947 206.582 549.645 206.691L574.628 207.02L531.126 265.097C507.238 296.984 486.966 324.269 486.089 325.584C484.555 327.885 486.856 331.282 534.194 397.357C561.589 435.49 584.381 467.378 584.819 468.035C585.477 469.131 579.779 469.46 557.863 469.46L530.14 469.35L494.089 415.766C474.364 386.18 457.818 362.073 457.38 362.073C456.942 362.073 440.286 386.18 420.452 415.766L384.401 469.35L358.431 469.46C344.076 469.46 332.351 469.24 332.351 469.021C332.351 468.693 354.267 437.792 381.114 400.206C407.96 362.621 429.657 331.391 429.437 330.734C429.109 329.967 408.946 302.244 384.51 268.932C360.075 235.62 340.022 208.006 340.022 207.458C340.022 206.911 351.966 206.472 367.197 206.472H394.263L425.383 251.947Z" fill="black"/>
<path d="M195.379 243.729C179.38 245.811 167.546 251.728 155.821 263.453C148.918 270.137 146.616 273.534 142.453 282.081C137.741 291.834 134.015 304.764 134.015 311.01V313.859H277.562V310.243C277.562 303.778 273.398 289.971 268.796 281.095C258.167 260.604 238.881 247.016 215.76 243.838C206.556 242.524 204.364 242.524 195.379 243.729Z" fill="black"/>
</svg>
