<svg width="314" height="314" viewBox="0 0 314 314" fill="none" xmlns="http://www.w3.org/2000/svg">
<circle cx="157" cy="157" r="157" fill="#D9D9D9"/>
<path d="M314 157C314 243.716 243.716 314 157 314C70.2837 314 0 243.716 0 157C0 70.2837 70.2837 0 157 0C243.716 0 314 70.2837 314 157ZM225.648 58.0769C209.687 58.6264 195.779 67.4315 185.417 79.5859C173.93 92.9309 166.302 108.749 160.807 124.867C150.956 116.834 143.38 106.367 127.589 101.828C114.95 97.9418 101.226 100.454 90.7852 108.552C85.4211 112.726 81.4961 118.456 79.5205 124.959C74.8105 140.345 84.5052 154.069 88.9274 158.976L98.5698 169.311C100.532 171.326 105.36 176.638 103.005 184.2C100.48 192.456 90.5628 197.768 80.3447 194.654C75.7917 193.267 69.2501 189.865 70.7416 185.103C71.3303 183.14 72.7302 181.662 73.4891 179.987C74.1694 178.548 74.4965 177.449 74.732 176.821C76.5767 170.738 74.0386 162.822 67.5231 160.82C61.4393 158.949 55.2378 160.428 52.8043 168.225C50.0699 177.122 54.3351 193.254 77.1393 200.267C103.829 208.483 126.398 193.934 129.59 174.99C131.592 163.123 126.254 154.292 116.429 142.975L108.422 134.117C103.568 129.276 101.919 121.008 106.93 114.688C111.169 109.337 117.2 107.048 127.065 109.73C141.496 113.655 147.92 123.638 158.622 131.71C154.2 146.232 151.296 160.794 148.692 173.864L147.083 183.625C139.429 223.79 133.568 245.862 118.378 258.54C115.317 260.712 110.92 263.982 104.34 264.218C100.859 264.283 99.7342 261.915 99.695 260.855C99.6165 258.448 101.657 257.31 103.031 256.237C105.046 255.151 108.134 253.306 107.898 247.419C107.689 240.459 101.932 234.414 93.5851 234.689C87.3443 234.911 77.8458 240.773 78.1991 251.514C78.5654 262.635 88.9143 270.943 104.523 270.406C112.87 270.132 131.501 266.73 149.843 244.907C171.208 219.905 177.188 191.252 181.688 170.253L186.699 142.569C189.486 142.883 192.469 143.119 195.727 143.197C222.312 143.773 235.618 129.983 235.814 119.961C235.945 113.89 231.837 107.911 226.08 108.055C221.03 108.173 216.686 111.692 215.535 116.612C214.305 122.211 223.987 127.249 216.424 132.168C211.06 135.648 201.431 138.082 187.85 136.093L190.31 122.46C195.36 96.6073 201.549 64.8018 225.125 64.0168C226.852 63.9252 233.132 64.0952 233.276 68.2427C233.315 69.6164 232.988 69.9958 231.353 73.1489C229.848 75.1768 229.076 77.6627 229.155 80.1747C229.377 86.7687 234.388 91.1123 241.675 90.8507C251.396 90.5497 254.17 81.0643 254.039 76.2104C253.62 64.7756 241.584 57.5798 225.648 58.0769Z" fill="black"/>
</svg>
