<svg width="499" height="700" viewBox="0 0 499 700" fill="none" xmlns="http://www.w3.org/2000/svg">
<path d="M63.125 331.4C122.825 352.384 185.807 362.486 249.075 361.225C312.345 362.478 375.326 352.368 435.025 331.375C481.625 313.2 498.15 293 498.15 281.375V192.5C481.858 203.41 464.379 212.435 446.05 219.4C382.886 242.018 316.157 253.044 249.075 251.95C181.998 253.024 115.276 242.015 52.1 219.45C33.7617 212.484 16.2812 203.442 0 192.5V281.25C0 293.1 16.575 313.2 63.125 331.4Z" fill="#FFCC23"/>
<path d="M63.125 499.025C84.2152 507.068 105.963 513.266 128.125 517.55C167.976 525.259 208.486 529.052 249.075 528.875C289.664 529.06 330.173 525.276 370.025 517.575C392.186 513.291 413.935 507.092 435.025 499.05C481.625 480.875 498.15 460.675 498.15 449.05V364.3C484.683 372.403 470.528 379.305 455.85 384.925C389.494 408.419 319.455 419.791 249.075 418.5C178.687 419.751 108.648 408.336 42.3 384.8C27.6281 379.166 13.4746 372.265 0 364.175V449C0 460.65 16.575 480.775 63.125 499.025Z" fill="#FFCC23"/>
<path d="M249.075 700C386.575 700 498.15 656.4 498.15 602.65V531.725C485.899 539.11 473.064 545.481 459.775 550.775L455.85 552.35C389.507 575.914 319.467 587.354 249.075 586.125C178.68 587.39 108.634 575.948 42.3 552.35C40.95 551.85 39.65 551.275 38.375 550.775C25.0856 545.481 12.2512 539.11 0 531.725V602.65C0 656.4 111.575 700 249.075 700Z" fill="#FFCC23"/>
<path d="M249.075 194.7C386.635 194.7 498.15 151.115 498.15 97.35C498.15 43.5851 386.635 0 249.075 0C111.515 0 0 43.5851 0 97.35C0 151.115 111.515 194.7 249.075 194.7Z" fill="#FFCC23"/>
</svg>
