<svg width="20" height="20" viewBox="0 0 20 20" fill="none" xmlns="http://www.w3.org/2000/svg">
<path d="M13.9863 0C17.3075 0 20 2.6925 20 6.01367C20 7.54353 19.4272 8.93871 18.4863 10C19.4272 11.0613 20 12.4565 20 13.9863C20 17.3075 17.3075 20 13.9863 20C12.4565 20 11.0613 19.4272 10 18.4863C8.93871 19.4272 7.54354 20 6.01367 20C2.6925 20 0 17.3075 0 13.9863C4.22535e-05 12.4567 0.572041 11.0612 1.5127 10C0.572042 8.93877 3.9406e-05 7.5433 0 6.01367C0 2.6925 2.6925 0 6.01367 0C7.5433 3.9405e-05 8.93877 0.572042 10 1.5127C11.0612 0.572044 12.4567 3.27593e-05 13.9863 0Z" fill="#28DD64"/>
</svg>
