<svg width="412" height="382" viewBox="0 0 412 382" fill="none" xmlns="http://www.w3.org/2000/svg">
<path d="M131.9 381.49L49.9298 320L107.69 238.01C117 224.97 136.57 224.97 152.4 220.31L144.95 196.09C129.11 200.74 113.27 212.86 98.3598 207.26L0.549805 171.86L35.0098 74.9699L125.38 103.85C140.3 109.44 145.88 129 155.2 142.05L176.62 127.14C167.31 114.1 150.54 101.99 151.47 86.1499L153.33 0.449951H255.81L258.6 86.1499C258.6 101.99 242.76 114.1 233.45 127.14L253.95 142.05C263.26 129.01 268.85 109.45 284.69 103.85L374.12 74.9699L411.38 171.86L311.7 207.26C295.86 212.85 280.02 200.74 264.19 196.09L256.73 220.31C272.57 224.97 292.13 224.97 302.38 237.08L363.87 319.99L281.88 381.48L222.26 313.47C212.01 301.36 217.61 282.73 217.61 266.88H191.52C191.52 282.72 198.05 301.35 187.8 314.39L131.89 381.47L131.9 381.49Z" fill="#F8F8FF"/>
</svg>
