<svg width="411" height="382" viewBox="0 0 411 382" fill="none" xmlns="http://www.w3.org/2000/svg">
<path d="M131.35 381.04L49.38 319.55L107.14 237.56C116.45 224.52 136.02 224.52 151.85 219.86L144.4 195.64C128.56 200.29 112.72 212.41 97.81 206.81L0 171.41L34.46 74.52L124.83 103.4C139.75 108.99 145.33 128.55 154.65 141.6L176.07 126.69C166.76 113.65 149.99 101.54 150.92 85.7L152.78 0H255.26L258.05 85.7C258.05 101.54 242.21 113.65 232.9 126.69L253.4 141.6C262.71 128.56 268.3 109 284.14 103.4L373.57 74.52L410.83 171.41L311.15 206.81C295.31 212.4 279.47 200.29 263.64 195.64L256.18 219.86C272.02 224.52 291.58 224.52 301.83 236.63L363.32 319.54L281.33 381.03L221.71 313.02C211.46 300.91 217.06 282.28 217.06 266.43H190.97C190.97 282.27 197.5 300.9 187.25 313.94L131.34 381.02L131.35 381.04Z" fill="#0C0C0C"/>
</svg>
