<svg width="918" height="918" viewBox="0 0 918 918" fill="none" xmlns="http://www.w3.org/2000/svg">
<path d="M817.94 0H100C44.7715 0 0 44.7716 0 100V817.94C0 873.168 44.7716 917.94 100 917.94H817.94C873.168 917.94 917.94 873.168 917.94 817.94V100C917.94 44.7715 873.168 0 817.94 0Z" fill="#0C0C0C"/>
<path d="M344.702 753L218.204 658.112L307.34 531.59C321.708 511.467 351.908 511.467 376.338 504.276L364.841 466.901C340.396 474.077 315.951 492.779 292.942 484.138L142 429.51L195.179 279.995L334.64 324.561C357.665 333.187 366.276 363.371 380.659 383.509L413.714 360.501C399.347 340.378 373.467 321.691 374.902 297.248L377.773 165H535.922L540.227 297.248C540.227 321.691 515.783 340.378 501.415 360.501L533.051 383.509C547.419 363.387 556.045 333.203 580.49 324.561L718.5 279.995L776 429.51L622.172 484.138C597.728 492.764 573.283 474.077 548.854 466.901L537.341 504.276C561.786 511.467 591.971 511.467 607.789 530.154L702.682 658.097L576.153 752.985L484.147 648.035C468.329 629.348 476.971 600.599 476.971 576.14H436.708C436.708 600.584 446.785 629.332 430.967 649.455L344.686 752.969L344.702 753Z" fill="#F8F8FF"/>
</svg>
